# xmcd CD database file
#
# Track frame offsets:
#	150
#	20072
#	48112
#	68518
#	93250
#	117402
#	130965
#	147436
#	163810
#	181156
#	189700
#	211006
#	225088
#	240551
#	254725
#	273174
#
# Disc length: 3887 seconds
#
# Revision: 3
# Processed by: cddbd v1.5.2PL0 Copyright (c) Steve Scherf et al.
# Submitted via: CDex 1.70beta2
#
DISCID=da0f2d10
DTITLE=Various Artist - Idstein Jazzfestival 2009
DYEAR=2009
DGENRE=Data
TTITLE0=Phoenix Foundation - Glücklich In Deutschland
TTITLE1=Stormy Monday - Stormy Monday Blues
TTITLE2=Thorsten Skringer - See Larry, This Happens
TTITLE3=Swing Size Orchestra - Theme From Star Trek
TTITLE4=Peter Petrel - Nobody Knows
TTITLE5=Jazz Konfekt - Smoke On The Water
TTITLE6=Latazz - My Heart Belongs To Daddy
TTITLE7=Old Time Jazz Connection - Bill Baileys Blues
TTITLE8=Lulo Reinhardt - Der Zug Zum Finkenkrug
TTITLE9=Boogie Baron and Caro Mhlanga - I'm Ready
TTITLE10=Original Blütenweg Jazzer - Creole Love Call
TTITLE11=En Haufe Leit - Going Back To New Orleans
TTITLE12=Brigithe Et Taxi Bleu - Padam Padam
TTITLE13=Das Blech - Burlesca
TTITLE14=Salsamania - Amiga
TTITLE15=Vorsicht Gebläse - I've Got The Music In Me
EXTD=YEAR: 2009
EXTT0=
EXTT1=
EXTT2=
EXTT3=
EXTT4=
EXTT5=
EXTT6=
EXTT7=
EXTT8=
EXTT9=
EXTT10=
EXTT11=
EXTT12=
EXTT13=
EXTT14=
EXTT15=
PLAYORDER=
